<?xml version="1.0" encoding="utf-8"?>
<!-- Generator: Adobe Illustrator 18.1.1, SVG Export Plug-In . SVG Version: 6.00 Build 0)  -->
<!DOCTYPE svg PUBLIC "-//W3C//DTD SVG 1.1//EN" "http://www.w3.org/Graphics/SVG/1.1/DTD/svg11.dtd">
<svg version="1.1" id="Слой_1" xmlns="http://www.w3.org/2000/svg" xmlns:xlink="http://www.w3.org/1999/xlink" x="0px" y="0px"
	 viewBox="230.6 15.8 318.7 318.7" enable-background="new 230.6 15.8 318.7 318.7" xml:space="preserve">
<g display="none">
	<g display="inline" opacity="0.2">
		<g>
			<path stroke="#EC2227" stroke-width="0.5" stroke-miterlimit="10" d="M545.5,308.6c0,12.2-10,22.1-22.1,22.1h-266
				c-12.2,0-22.1-10-22.1-22.1v-266c0-12.2,10-22.1,22.1-22.1h266c12.2,0,22.1,9.9,22.1,22.1V308.6z"/>
			<path stroke="#EC2227" stroke-width="0.5" stroke-miterlimit="10" d="M290.5,345.3c-11.2,0-20.4-9.4-20.4-20.8V26.6
				c0-11.4,9.2-20.8,20.4-20.8h199.1c11.2,0,20.4,9.4,20.4,20.8v297.8c0,11.5-9.2,20.8-20.4,20.8H290.5z"/>
			<path stroke="#EC2227" stroke-width="0.5" stroke-miterlimit="10" d="M241.3,295.2c-11.6,0-21.1-9.1-21.1-20.2V75.3
				c0-11.1,9.5-20.2,21.1-20.2h297.3c11.6,0,21.1,9.1,21.1,20.2V275c0,11.1-9.5,20.2-21.1,20.2H241.3z"/>
		</g>
		<circle stroke="#EC2227" stroke-width="0.5" stroke-miterlimit="10" cx="390" cy="175.2" r="70.7"/>
		<circle stroke="#EC2227" stroke-width="0.5" stroke-miterlimit="10" cx="390" cy="175.2" r="169.7"/>
		<line fill="none" stroke="#EC2227" stroke-width="0.5" stroke-miterlimit="10" x1="214.8" y1="0" x2="565.2" y2="350.4"/>
		<line fill="none" stroke="#EC2227" stroke-width="0.5" stroke-miterlimit="10" x1="565.2" y1="0" x2="214.8" y2="350.4"/>
	</g>
</g>
<path d="M549.4,175.2c0-87.9-71.5-159.4-159.4-159.4c-87.9,0-159.4,71.5-159.4,159.4c0,44.7,19.1,87.6,52.4,117.9l0,0.1l7.7,6.8
	l0-0.3c28.2,22.5,63.3,34.9,99.2,34.9c35.9,0,71-12.4,99.2-34.9l0,0.3l7.1-6.3l0.6-0.6l0,0C530.3,262.8,549.4,219.9,549.4,175.2z
	 M487.9,289.8c-27.4,23.4-62.1,36.3-97.9,36.3c-35.8,0-70.6-12.9-97.9-36.3c0-0.2,0.1-0.5,0.1-0.7c0.1-0.8,0.2-1.6,0.4-2.4
	c0.1-0.7,0.3-1.3,0.4-2l0.1-0.3c0.2-0.8,0.3-1.5,0.5-2.3c0.1-0.6,0.3-1.2,0.4-1.8l0.2-0.6c0.2-0.7,0.3-1.4,0.5-2
	c0.2-0.7,0.4-1.4,0.6-2.1c0.2-0.8,0.5-1.5,0.7-2.3c0.2-0.5,0.4-1.1,0.5-1.6l0.2-0.5c0.3-0.7,0.5-1.5,0.8-2.2
	c0.2-0.5,0.4-0.9,0.6-1.4l0.3-0.7c0.3-0.7,0.5-1.3,0.8-2c0.2-0.5,0.4-1,0.7-1.5l0.3-0.8c0.3-0.6,0.6-1.2,0.8-1.8
	c0.2-0.5,0.5-0.9,0.7-1.3l0.5-1.1c0.3-0.5,0.5-1,0.8-1.5c0.3-0.6,0.7-1.2,1-1.8c0.4-0.7,0.8-1.4,1.2-2c0.3-0.4,0.5-0.9,0.8-1.3
	l0.4-0.7c0.4-0.6,0.7-1.2,1.1-1.8c0.2-0.4,0.5-0.7,0.7-1.1l0.7-1c0.4-0.5,0.7-1,1.1-1.6c0.4-0.6,0.8-1.1,1.3-1.7l0.2-0.3
	c0.4-0.5,0.8-1,1.2-1.5c0.3-0.4,0.7-0.8,1-1.2l0.5-0.5c0.5-0.5,0.9-1.1,1.4-1.6c0.3-0.4,0.7-0.7,1-1.1l0.7-0.7
	c0.4-0.5,0.8-0.9,1.3-1.4c0.4-0.4,0.7-0.7,1.1-1.1l0.8-0.8c0.4-0.4,0.8-0.8,1.2-1.2c0.4-0.4,0.8-0.8,1.2-1.1l0.5-0.5
	c0.5-0.4,1-0.9,1.5-1.3c0.4-0.3,0.7-0.6,1.1-0.9l0.7-0.6c0.5-0.4,1-0.9,1.6-1.3c0.4-0.3,0.7-0.6,1.1-0.9l1-0.7
	c0.5-0.4,0.9-0.7,1.4-1.1c0.4-0.3,0.9-0.6,1.3-0.9l0.8-0.6c0.5-0.3,0.9-0.7,1.4-1c0.5-0.3,0.9-0.6,1.4-0.9l1.1-0.7
	c0.4-0.3,0.8-0.5,1.3-0.8c0.4-0.3,0.9-0.5,1.3-0.8l1.1-0.6c0.5-0.3,0.9-0.5,1.4-0.8c0.4-0.2,0.9-0.5,1.3-0.7l1.1-0.6
	c0.5-0.3,1-0.5,1.5-0.8c0.4-0.2,0.9-0.4,1.3-0.6l1.3-0.6c0.5-0.2,0.9-0.4,1.4-0.6c0.5-0.2,1-0.4,1.4-0.6l1.3-0.5
	c0.4-0.2,0.9-0.4,1.3-0.5c0.5-0.2,1-0.4,1.6-0.6l1.3-0.5c0.4-0.2,0.9-0.3,1.3-0.5c0.6-0.2,1.1-0.4,1.7-0.5l1.1-0.3
	c0.5-0.2,1-0.3,1.5-0.5c0.5-0.1,1-0.3,1.5-0.4l1.3-0.3c0.5-0.1,1-0.3,1.5-0.4c0.5-0.1,1.1-0.2,1.6-0.3l1.5-0.3
	c0.4-0.1,0.8-0.2,1.3-0.3c0.6-0.1,1.3-0.2,2-0.3l1.3-0.2c0.4-0.1,0.8-0.1,1.2-0.2c0.7-0.1,1.4-0.2,2.1-0.2l1.2-0.1
	c0.4-0.1,0.8-0.1,1.2-0.1c1-0.1,1.9-0.1,2.9-0.2l0.8-0.1c0.3,0,0.6,0,0.9-0.1c1.5-0.1,3-0.1,4.6-0.1c1.5,0,3.1,0,4.6,0.1
	c0.3,0,0.5,0,0.8,0.1l1.1,0.1c0.9,0.1,1.8,0.1,2.7,0.2c0.4,0,0.8,0.1,1.2,0.1l1.2,0.1c0.7,0.1,1.4,0.2,2.1,0.2
	c0.4,0.1,0.8,0.1,1.2,0.2l1.3,0.2c0.7,0.1,1.3,0.2,1.9,0.3c0.4,0.1,0.8,0.2,1.3,0.3l1.5,0.3c0.6,0.1,1.1,0.2,1.7,0.4
	c0.4,0.1,0.9,0.2,1.3,0.3l1.5,0.4c0.5,0.1,1,0.3,1.5,0.4c0.5,0.1,1,0.3,1.5,0.5l1.3,0.4c0.5,0.1,1,0.3,1.5,0.5
	c0.4,0.1,0.9,0.3,1.3,0.5l1.1,0.4c0.6,0.2,1.2,0.4,1.7,0.6c0.5,0.2,0.9,0.4,1.4,0.6l1.3,0.5c0.4,0.2,0.9,0.4,1.3,0.6
	c0.5,0.2,0.9,0.4,1.4,0.6l1.3,0.6c0.4,0.2,0.9,0.4,1.3,0.6c0.4,0.2,0.9,0.4,1.3,0.7l1.1,0.5c0.5,0.3,1.1,0.5,1.6,0.8
	c0.5,0.3,0.9,0.5,1.4,0.8l1.1,0.6c0.4,0.2,0.9,0.5,1.3,0.8c0.5,0.3,0.9,0.6,1.3,0.8l1,0.6c0.5,0.3,0.9,0.6,1.4,0.9
	c0.5,0.3,1,0.7,1.4,1l0.8,0.6c0.5,0.3,0.9,0.6,1.3,0.9c0.5,0.3,0.9,0.7,1.4,1l1,0.8c0.4,0.3,0.7,0.6,1.1,0.9
	c0.4,0.3,0.9,0.7,1.3,1.1l1,0.8c0.4,0.3,0.7,0.6,1.1,0.9c0.5,0.4,1,0.9,1.5,1.3l0.6,0.6c0.4,0.3,0.7,0.7,1.1,1
	c0.4,0.4,0.9,0.8,1.3,1.3l0.7,0.7c0.4,0.4,0.8,0.8,1.1,1.1c0.4,0.5,0.9,0.9,1.3,1.4l0.6,0.7c0.3,0.4,0.7,0.7,1,1.1
	c0.4,0.5,0.8,1,1.2,1.4l0.6,0.7c0.3,0.4,0.7,0.8,1,1.2c0.4,0.5,0.8,1,1.2,1.6l0.2,0.3c0.4,0.5,0.9,1.1,1.3,1.7c0.3,0.5,0.7,1,1,1.4
	l0.7,1c0.3,0.4,0.6,0.8,0.8,1.2c0.3,0.5,0.7,1,1,1.6l0.5,0.8c0.3,0.5,0.6,0.9,0.8,1.4c0.4,0.7,0.8,1.3,1.2,2l0.1,0.2
	c0.3,0.5,0.6,1.1,0.9,1.6c0.3,0.5,0.6,1,0.8,1.6l0.4,0.9c0.3,0.5,0.5,1,0.8,1.5c0.3,0.6,0.6,1.3,0.9,1.9l0.3,0.7
	c0.2,0.5,0.4,0.9,0.6,1.4c0.3,0.7,0.6,1.4,0.9,2.2l0.2,0.5c0.2,0.5,0.4,1,0.6,1.5c0.2,0.6,0.4,1.2,0.6,1.8l0.3,1
	c0.2,0.5,0.3,1,0.5,1.5c0.2,0.8,0.5,1.5,0.7,2.3c0.2,0.7,0.4,1.4,0.6,2.1c0.2,0.7,0.4,1.4,0.5,2.1l0.1,0.4c0.2,0.6,0.3,1.3,0.5,1.9
	c0.2,0.7,0.3,1.5,0.5,2.2l0,0.1c0.1,0.7,0.3,1.4,0.4,2.2c0.1,0.8,0.3,1.5,0.4,2.3l1.5-0.2l-1.5,0.4
	C487.9,289.4,487.9,289.6,487.9,289.8z M390,196.9c-28.6,0-51.8-23.2-51.8-51.8c0-28.6,23.2-51.8,51.8-51.8
	c28.6,0,51.8,23.2,51.8,51.8C441.8,173.6,418.6,196.9,390,196.9z M489.8,264.6c-0.3-0.7-0.5-1.3-0.8-2c-0.2-0.5-0.4-1-0.6-1.4
	l-0.5-1.2c-0.3-0.6-0.5-1.2-0.8-1.8c-0.2-0.5-0.5-0.9-0.7-1.4l-0.6-1.1c-0.3-0.6-0.6-1.2-0.9-1.7c-0.3-0.6-0.6-1.1-0.9-1.6l-0.3-0.5
	c-0.4-0.7-0.7-1.3-1.1-2c-0.3-0.5-0.6-1-0.9-1.5l-0.3-0.5c-0.4-0.7-0.9-1.4-1.3-2.1c-0.4-0.6-0.9-1.3-1.3-1.9
	c-0.5-0.7-0.9-1.3-1.4-2c-0.4-0.6-0.8-1.1-1.2-1.7l-0.1-0.2c-0.5-0.6-1-1.3-1.5-1.9c-0.5-0.6-0.9-1.1-1.4-1.7l-0.1-0.1
	c-0.5-0.6-1-1.2-1.5-1.8c-0.4-0.5-0.9-1-1.3-1.5l-0.5-0.6c-0.4-0.5-0.8-0.9-1.3-1.4c-0.5-0.6-1.1-1.1-1.6-1.7
	c-0.5-0.6-1.1-1.1-1.7-1.7c-0.5-0.5-1.1-1.1-1.7-1.6c-0.6-0.5-1.2-1.1-1.7-1.6c-0.6-0.5-1.2-1-1.7-1.5c-0.6-0.5-1.2-1-1.8-1.5
	c-0.6-0.5-1.2-1-1.8-1.5c-0.6-0.5-1.2-1-1.9-1.4c-0.6-0.5-1.2-0.9-1.9-1.4c-0.6-0.5-1.3-0.9-1.9-1.4c-0.6-0.4-1.3-0.9-1.9-1.3
	c-0.7-0.4-1.3-0.9-2-1.3l-0.3-0.2c-0.6-0.3-1.1-0.7-1.7-1c-0.7-0.4-1.4-0.8-2.1-1.2c-0.7-0.4-1.4-0.8-2-1.1c-0.6-0.3-1.3-0.7-1.9-1
	l-0.2-0.1c-0.7-0.4-1.4-0.7-2.1-1c-0.7-0.4-1.5-0.7-2.2-1l-0.3-0.1c-0.6-0.3-1.2-0.6-1.8-0.8c-0.7-0.3-1.3-0.6-2-0.8l-0.6-0.2
	c-0.6-0.2-1.2-0.5-1.8-0.7c-0.6-0.2-1.2-0.4-1.8-0.7l-1.1-0.4c-0.5-0.2-1-0.4-1.5-0.5c-0.7-0.2-1.4-0.4-2.1-0.7l-0.5-0.2
	c-0.6-0.2-1.3-0.4-1.9-0.6c-0.6-0.2-1.2-0.3-1.8-0.5l-1.4-0.4c-0.2-0.1-0.5-0.1-0.7-0.2c21.3-9.7,35.2-31.2,35.2-54.7
	c0-33.2-27-60.3-60.3-60.3s-60.3,27-60.3,60.3c0,23.6,14,45,35.2,54.7c-0.2,0-0.4,0.1-0.6,0.1l-1.6,0.4c-0.6,0.1-1.2,0.3-1.7,0.5
	c-0.7,0.2-1.3,0.4-2,0.6l-0.5,0.2c-0.7,0.2-1.4,0.4-2.1,0.6c-0.5,0.2-1,0.4-1.5,0.5l-0.8,0.3c-0.7,0.3-1.5,0.5-2.2,0.8
	c-0.7,0.3-1.4,0.6-2.1,0.8l-0.3,0.1c-0.7,0.3-1.3,0.5-2,0.8c-0.6,0.3-1.2,0.6-1.9,0.8l-0.5,0.2c-0.6,0.3-1.3,0.6-1.9,0.9
	c-0.6,0.3-1.1,0.6-1.7,0.9l-0.6,0.3c-0.6,0.3-1.3,0.6-1.9,1c-0.7,0.4-1.4,0.7-2,1.1c-0.7,0.4-1.4,0.8-2.1,1.2
	c-0.6,0.3-1.1,0.7-1.7,1.1l-0.3,0.2c-0.7,0.4-1.3,0.8-2,1.3c-0.7,0.4-1.3,0.9-1.9,1.3c-0.7,0.4-1.3,0.9-1.9,1.4
	c-0.6,0.5-1.3,0.9-1.9,1.4c-0.6,0.5-1.3,1-1.9,1.4c-0.6,0.5-1.2,1-1.8,1.5c-0.6,0.5-1.2,1-1.8,1.5c-0.6,0.5-1.2,1-1.7,1.5
	c-0.6,0.5-1.2,1.1-1.7,1.6l-0.2,0.2c-0.5,0.5-1,1-1.5,1.4c-0.6,0.6-1.1,1.1-1.7,1.7c-0.5,0.6-1.1,1.1-1.6,1.7
	c-0.5,0.6-1.1,1.2-1.6,1.8c-0.5,0.6-1,1.2-1.5,1.8c-0.5,0.6-1,1.2-1.5,1.8c-0.5,0.6-1,1.2-1.5,1.8c-0.5,0.6-1,1.3-1.5,1.9l-0.2,0.2
	c-0.4,0.5-0.8,1.1-1.2,1.6c-0.5,0.7-0.9,1.3-1.4,2l-0.1,0.2c-0.4,0.6-0.8,1.1-1.2,1.7c-0.4,0.6-0.8,1.3-1.2,1.9l-0.5,0.7
	c-0.3,0.5-0.6,0.9-0.8,1.4c-0.4,0.7-0.8,1.4-1.2,2.1l-0.2,0.4c-0.3,0.5-0.6,1.1-0.9,1.6c-0.3,0.6-0.6,1.2-0.9,1.8l-0.5,1
	c-0.2,0.5-0.5,0.9-0.7,1.4c-0.3,0.6-0.5,1.1-0.8,1.7l-0.5,1.2c-0.2,0.5-0.4,1-0.7,1.5c-0.3,0.7-0.5,1.3-0.8,2l-0.5,1.2
	c-0.2,0.4-0.3,0.8-0.5,1.3c-0.2,0.7-0.5,1.3-0.7,2l-0.4,1.3c-0.2,0.4-0.3,0.9-0.5,1.3c-0.3,0.9-0.6,1.8-0.8,2.8l-0.2,0.8
	c-0.1,0.3-0.2,0.7-0.3,1.1c-0.4,1.6-0.8,3.2-1.2,4.7c-0.1,0.3-0.1,0.6-0.2,0.9l-0.2,1.1c0,0,0,0,0,0c-29-28.3-45.5-67.5-45.5-107.8
	C239.1,92,306.8,24.3,390,24.3c83.2,0,150.9,67.7,150.9,150.9c0,40.3-16.6,79.5-45.5,107.8c0-0.1,0-0.2-0.1-0.3l-0.2-0.8
	c-0.1-0.3-0.1-0.6-0.2-0.9c-0.4-1.6-0.8-3.2-1.2-4.7c-0.1-0.4-0.2-0.7-0.3-1.1l-0.2-0.8c-0.3-0.9-0.5-1.9-0.8-2.8
	c-0.1-0.4-0.3-0.9-0.4-1.3l-0.4-1.3c-0.2-0.7-0.5-1.3-0.7-2c-0.2-0.4-0.3-0.9-0.5-1.3L489.8,264.6z"/>
</svg>
