<?xml version="1.0" encoding="utf-8"?>
<!-- Generator: Adobe Illustrator 22.0.0, SVG Export Plug-In . SVG Version: 6.00 Build 0)  -->
<svg version="1.1" id="Слой_1" xmlns="http://www.w3.org/2000/svg" xmlns:xlink="http://www.w3.org/1999/xlink" x="0px" y="0px"
	 viewBox="0 0 585.9 151.6" enable-background="new 0 0 585.9 151.6" xml:space="preserve">
<g>
	<g>
		<path fill="#FFFFFF" d="M226.6,12.5h-6.1l-31.1,76h4.9c0.6,0,1.1-0.2,1.6-0.5c0.4-0.3,0.7-0.8,0.9-1.2l8.7-21.5h36.1l8.7,21.5
			c0.2,0.5,0.5,0.9,0.9,1.2c0.4,0.3,0.9,0.5,1.5,0.5h4.9l-31-75.6L226.6,12.5z M223.3,20.9c0.1-0.3,0.2-0.5,0.3-0.8
			c0.1,0.3,0.2,0.6,0.3,0.8c0.2,0.8,0.5,1.5,0.8,2.1l15,37.2h-32.1l15-37.1C222.8,22.4,223.1,21.7,223.3,20.9z"/>
		<polygon fill="#FFFFFF" points="274.8,12.5 268.4,12.5 268.4,88.4 310.3,88.4 310.3,82.8 274.8,82.8 		"/>
		<polygon fill="#FFFFFF" points="363.8,12.5 304.5,12.5 304.5,18.1 331,18.1 331,88.4 337.4,88.4 337.4,18.1 363.8,18.1 		"/>
		<path fill="#FFFFFF" d="M396.2,12.5h-6.1l-31.1,76h4.9c0.6,0,1.1-0.2,1.6-0.5c0.4-0.3,0.7-0.8,0.9-1.2l8.7-21.5h36.1l8.7,21.5
			c0.2,0.5,0.5,0.9,0.9,1.2c0.4,0.3,0.9,0.5,1.5,0.5h4.9L396.2,12.5z M392.9,20.9c0.1-0.3,0.2-0.6,0.3-0.8c0.1,0.3,0.2,0.6,0.3,0.8
			c0.2,0.8,0.5,1.5,0.8,2.1l15,37.2h-32.1l15-37.1C392.4,22.4,392.7,21.7,392.9,20.9z"/>
		<path fill="#FFFFFF" d="M491,75.8c0,0.5,0,0.9,0,1.4l-47.5-63.6c-0.4-0.5-0.7-0.8-1.1-1c-0.3-0.2-0.8-0.2-1.4-0.2h-3.1v76h5.7
			V24.8c0-0.4,0-0.9,0-1.4l47.7,63.7c0.6,0.8,1.4,1.3,2.4,1.3h3.1v-76H491V75.8z"/>
		<path fill="#FFFFFF" d="M583.2,34.5c-1.7-4.8-4.2-8.9-7.4-12.3c-3.2-3.4-7-6-11.5-7.9c-4.4-1.8-9.4-2.8-14.8-2.8
			c-5.3,0-10.2,0.9-14.7,2.8c-4.4,1.9-8.3,4.5-11.5,7.9c-3.2,3.4-5.7,7.5-7.4,12.2c-1.8,4.7-2.7,10.1-2.7,15.9
			c0,5.8,0.9,11.2,2.7,15.9c1.8,4.8,4.3,8.9,7.4,12.2c3.2,3.4,7,6,11.5,7.9c4.4,1.8,9.3,2.8,14.7,2.8c5.4,0,10.3-0.9,14.8-2.8
			c4.4-1.8,8.3-4.5,11.5-7.9c3.2-3.4,5.7-7.5,7.4-12.2c1.7-4.8,2.6-10.1,2.6-15.9C585.9,44.6,585,39.3,583.2,34.5z M579.3,50.4
			c0,5.2-0.7,9.9-2.1,14c-1.4,4.1-3.4,7.6-6,10.4c-2.6,2.8-5.7,5-9.3,6.5c-3.6,1.5-7.7,2.2-12.2,2.2c-4.4,0-8.4-0.8-12-2.2
			c-3.6-1.5-6.8-3.7-9.4-6.5c-2.6-2.8-4.7-6.3-6.1-10.4c-1.4-4.1-2.2-8.8-2.2-14c0-5.1,0.7-9.8,2.2-13.9c1.4-4.1,3.5-7.6,6.1-10.4
			c2.6-2.8,5.8-5,9.4-6.5c3.6-1.5,7.7-2.3,12-2.3c4.4,0,8.5,0.8,12.2,2.3c3.6,1.5,6.8,3.7,9.3,6.5c2.6,2.8,4.6,6.3,6,10.4
			C578.5,40.6,579.3,45.3,579.3,50.4z"/>
		<path fill="#FFFFFF" d="M206.4,123.1c-0.8-0.9-1.8-1.5-2.9-2c-2.2-0.9-5.2-0.9-7.4,0c-1.1,0.5-2.1,1.1-2.9,2
			c-0.8,0.9-1.4,1.9-1.9,3.1c-0.4,1.2-0.7,2.5-0.7,4c0,1.5,0.2,2.8,0.7,4c0.4,1.2,1.1,2.2,1.9,3.1c0.8,0.9,1.8,1.5,2.9,2
			c1.1,0.5,2.4,0.7,3.7,0.7c1.4,0,2.6-0.2,3.7-0.7c1.1-0.5,2.1-1.1,2.9-2c0.8-0.9,1.4-1.9,1.9-3.1c0.4-1.2,0.7-2.5,0.7-4
			c0-1.4-0.2-2.8-0.7-4C207.9,125,207.2,124,206.4,123.1z M206.6,130.2c0,1.2-0.2,2.3-0.5,3.3c-0.3,0.9-0.8,1.7-1.4,2.4
			c-0.6,0.6-1.3,1.1-2.1,1.5c-1.7,0.7-3.9,0.7-5.6,0c-0.8-0.3-1.5-0.8-2.1-1.5c-0.6-0.6-1.1-1.5-1.4-2.4c-0.3-0.9-0.5-2-0.5-3.3
			c0-1.2,0.2-2.3,0.5-3.2c0.3-0.9,0.8-1.7,1.4-2.4c0.6-0.6,1.3-1.1,2.1-1.5c0.8-0.3,1.8-0.5,2.8-0.5c1,0,2,0.2,2.8,0.5
			c0.8,0.3,1.5,0.8,2.1,1.5c0.6,0.6,1.1,1.5,1.4,2.4C206.4,127.9,206.6,129,206.6,130.2z"/>
		<path fill="#FFFFFF" d="M233.8,132.4c0,0.8-0.1,1.5-0.4,2.2c-0.2,0.7-0.6,1.3-1,1.7c-0.4,0.5-1,0.9-1.6,1.1c-1.2,0.6-3,0.6-4.3,0
			c-0.6-0.3-1.2-0.7-1.6-1.1c-0.4-0.5-0.8-1.1-1-1.7c-0.2-0.7-0.4-1.4-0.4-2.2v-11.7h-2.3v11.7c0,1.1,0.2,2.1,0.5,3
			c0.3,0.9,0.8,1.8,1.5,2.4c0.6,0.7,1.4,1.2,2.3,1.6c0.9,0.4,1.9,0.6,3.1,0.6s2.2-0.2,3.1-0.6c0.9-0.4,1.7-0.9,2.3-1.6
			c0.6-0.7,1.1-1.5,1.5-2.4c0.3-0.9,0.5-1.9,0.5-3v-11.7h-2.3V132.4z"/>
		<polygon fill="#FFFFFF" points="250.2,122.7 256.6,122.7 256.6,139.8 258.9,139.8 258.9,122.7 265.3,122.7 265.3,120.6 
			250.2,120.6 		"/>
		<path fill="#FFFFFF" d="M292.3,123.2c-0.8-0.8-1.8-1.5-2.9-1.9c-1.1-0.4-2.4-0.7-3.7-0.7h-7.1v19.2h7.1c1.4,0,2.6-0.2,3.7-0.7
			c1.1-0.4,2.1-1.1,2.9-1.9c0.8-0.8,1.4-1.9,1.9-3c0.4-1.2,0.7-2.5,0.7-4c0-1.4-0.2-2.8-0.7-4C293.7,125.1,293.1,124,292.3,123.2z
			 M292.5,130.2c0,1.2-0.2,2.3-0.5,3.2c-0.3,0.9-0.8,1.7-1.4,2.3c-0.6,0.6-1.3,1.1-2.1,1.4c-0.8,0.3-1.8,0.5-2.8,0.5h-4.8v-15h4.8
			c1,0,2,0.2,2.8,0.5c0.8,0.3,1.5,0.8,2.1,1.4c0.6,0.6,1.1,1.4,1.4,2.3C292.3,127.9,292.5,129,292.5,130.2z"/>
		<path fill="#FFFFFF" d="M322.2,123.1c-0.8-0.9-1.8-1.5-2.9-2c-2.2-0.9-5.2-0.9-7.4,0c-1.1,0.5-2.1,1.1-2.9,2
			c-0.8,0.9-1.4,1.9-1.9,3.1c-0.4,1.2-0.7,2.5-0.7,4c0,1.5,0.2,2.8,0.7,4c0.4,1.2,1.1,2.2,1.9,3.1c0.8,0.9,1.8,1.5,2.9,2
			c1.1,0.5,2.4,0.7,3.7,0.7c1.4,0,2.6-0.2,3.7-0.7c1.1-0.5,2.1-1.1,2.9-2c0.8-0.9,1.4-1.9,1.9-3.1c0.4-1.2,0.7-2.5,0.7-4
			c0-1.4-0.2-2.8-0.7-4C323.7,125,323.1,124,322.2,123.1z M322.4,130.2c0,1.2-0.2,2.3-0.5,3.3c-0.3,0.9-0.8,1.7-1.4,2.4
			c-0.6,0.6-1.3,1.1-2.1,1.5c-1.7,0.7-3.9,0.7-5.6,0c-0.8-0.3-1.5-0.8-2.1-1.5c-0.6-0.6-1.1-1.5-1.4-2.4c-0.3-0.9-0.5-2-0.5-3.3
			c0-1.2,0.2-2.3,0.5-3.2c0.3-0.9,0.8-1.7,1.4-2.4c0.6-0.6,1.3-1.1,2.1-1.5c0.8-0.3,1.8-0.5,2.8-0.5c1,0,2,0.2,2.8,0.5
			c0.8,0.3,1.5,0.8,2.1,1.5c0.6,0.6,1.1,1.5,1.4,2.4C322.3,127.9,322.4,129,322.4,130.2z"/>
		<path fill="#FFFFFF" d="M351.2,123.1c-0.8-0.9-1.8-1.5-2.9-2c-2.2-0.9-5.2-0.9-7.4,0c-1.1,0.5-2.1,1.1-2.9,2
			c-0.8,0.9-1.4,1.9-1.9,3.1c-0.4,1.2-0.7,2.5-0.7,4c0,1.5,0.2,2.8,0.7,4c0.4,1.2,1.1,2.2,1.9,3.1c0.8,0.9,1.8,1.5,2.9,2
			c1.1,0.5,2.4,0.7,3.7,0.7c1.4,0,2.6-0.2,3.7-0.7c1.1-0.5,2.1-1.1,2.9-2c0.8-0.9,1.4-1.9,1.9-3.1c0.4-1.2,0.7-2.5,0.7-4
			c0-1.4-0.2-2.8-0.7-4C352.6,125,352,124,351.2,123.1z M351.4,130.2c0,1.2-0.2,2.3-0.5,3.3c-0.3,0.9-0.8,1.7-1.4,2.4
			c-0.6,0.6-1.3,1.1-2.1,1.5c-1.7,0.7-3.9,0.7-5.6,0c-0.8-0.3-1.5-0.8-2.1-1.5c-0.6-0.6-1.1-1.5-1.4-2.4c-0.3-0.9-0.5-2-0.5-3.3
			c0-1.2,0.2-2.3,0.5-3.2c0.3-0.9,0.8-1.7,1.4-2.4c0.6-0.6,1.3-1.1,2.1-1.5c0.8-0.3,1.8-0.5,2.8-0.5c1,0,2,0.2,2.8,0.5
			c0.8,0.3,1.5,0.8,2.1,1.5c0.6,0.6,1.1,1.5,1.4,2.4C351.2,127.9,351.4,129,351.4,130.2z"/>
		<path fill="#FFFFFF" d="M375.1,130.8c0.7-0.3,1.3-0.7,1.8-1.2c0.5-0.5,0.9-1,1.1-1.7c0.3-0.6,0.4-1.3,0.4-2.1c0-1.7-0.6-3.1-1.7-4
			c-1.1-0.9-2.8-1.3-5-1.3h-5.1v19.2h2.3v-8.2h1.9c0.4,0,0.5,0.1,0.6,0.1c0.1,0,0.2,0.1,0.3,0.3l5.8,7.4c0.1,0.2,0.3,0.3,0.5,0.4
			c0.2,0.1,0.4,0.1,0.6,0.1h2.2l-6.8-8.5C374.2,131.1,374.7,131,375.1,130.8z M368.8,122.7h2.8c1.5,0,2.6,0.3,3.4,0.8
			c0.7,0.5,1.1,1.3,1.1,2.5c0,0.6-0.1,1.1-0.3,1.5c-0.2,0.4-0.5,0.8-0.9,1.1c-0.4,0.3-0.9,0.6-1.4,0.7c-0.6,0.2-1.3,0.3-2,0.3h-2.7
			V122.7z"/>
		<path fill="#FFFFFF" d="M419.4,135.8c-0.1,0-0.1,0.1-0.2,0.2c-0.3,0.3-0.7,0.6-1,0.8c-0.3,0.2-0.7,0.4-1.1,0.6
			c-0.4,0.2-0.8,0.3-1.3,0.4c-0.5,0.1-1,0.1-1.7,0.1c-1,0-1.9-0.2-2.7-0.5c-0.8-0.3-1.5-0.8-2.1-1.5c-0.6-0.6-1.1-1.5-1.4-2.4
			c-0.3-1-0.5-2.1-0.5-3.3c0-1.2,0.2-2.3,0.5-3.2c0.3-0.9,0.8-1.7,1.5-2.4c0.6-0.7,1.4-1.2,2.2-1.5c0.9-0.4,1.8-0.5,2.9-0.5
			c0.6,0,1.1,0,1.5,0.1c0.4,0.1,0.8,0.2,1.2,0.3c0.3,0.1,0.6,0.3,0.8,0.4c0.2,0.2,0.5,0.3,0.6,0.4c0.2,0.1,0.3,0.2,0.4,0.3
			c0.6,0.4,1.1,0.2,1.3-0.1l0.6-0.9l-0.3-0.3c-0.4-0.4-0.9-0.7-1.3-1c-0.4-0.3-0.9-0.5-1.4-0.7c-0.5-0.2-1.1-0.3-1.6-0.4
			c-0.6-0.1-1.2-0.2-1.9-0.2c-1.4,0-2.7,0.2-3.8,0.7c-1.2,0.5-2.2,1.2-3,2c-0.8,0.9-1.5,1.9-1.9,3.1c-0.5,1.2-0.7,2.5-0.7,4
			c0,1.5,0.2,2.8,0.7,4c0.4,1.2,1.1,2.2,1.9,3.1c0.8,0.9,1.8,1.5,2.9,2c1.1,0.5,2.3,0.7,3.7,0.7c0.8,0,1.5-0.1,2.2-0.2
			s1.3-0.3,1.8-0.6c0.6-0.2,1.1-0.5,1.6-0.9c0.5-0.3,0.9-0.7,1.3-1.1l0.3-0.3l-0.8-0.9C420.1,135.7,419.7,135.7,419.4,135.8z"/>
		<path fill="#FFFFFF" d="M447,123.1c-0.8-0.9-1.8-1.5-2.9-2c-2.2-0.9-5.2-0.9-7.4,0c-1.1,0.5-2.1,1.1-2.9,2
			c-0.8,0.9-1.4,1.9-1.9,3.1c-0.4,1.2-0.7,2.5-0.7,4c0,1.5,0.2,2.8,0.7,4c0.4,1.2,1.1,2.2,1.9,3.1c0.8,0.9,1.8,1.5,2.9,2
			c1.1,0.5,2.4,0.7,3.7,0.7c1.4,0,2.6-0.2,3.7-0.7c1.1-0.5,2.1-1.1,2.9-2c0.8-0.9,1.4-1.9,1.9-3.1c0.4-1.2,0.7-2.5,0.7-4
			c0-1.4-0.2-2.8-0.7-4C448.4,125,447.8,124,447,123.1z M447.1,130.2c0,1.2-0.2,2.3-0.5,3.3c-0.3,0.9-0.8,1.7-1.4,2.4
			c-0.6,0.6-1.3,1.1-2.1,1.5c-1.7,0.7-3.9,0.7-5.6,0c-0.8-0.3-1.5-0.8-2.1-1.5c-0.6-0.6-1.1-1.5-1.4-2.4c-0.3-1-0.5-2-0.5-3.3
			c0-1.2,0.2-2.3,0.5-3.2c0.3-0.9,0.8-1.7,1.4-2.4c0.6-0.6,1.3-1.1,2.1-1.5c0.8-0.3,1.8-0.5,2.8-0.5c1,0,2,0.2,2.8,0.5
			c0.8,0.3,1.5,0.8,2.1,1.5c0.6,0.6,1.1,1.5,1.4,2.4C447,127.9,447.1,129,447.1,130.2z"/>
		<path fill="#FFFFFF" d="M472.9,135.5l-10.8-14.5c-0.1-0.2-0.3-0.3-0.4-0.4c-0.1-0.1-0.3-0.1-0.5-0.1H460v19.2h2.1v-15l10.9,14.5
			c0.2,0.3,0.5,0.5,0.9,0.5h1.1v-19.2h-2.2V135.5z"/>
		<path fill="#FFFFFF" d="M501.1,135.8c-0.1,0-0.1,0.1-0.2,0.2c-0.3,0.3-0.7,0.6-1,0.8c-0.3,0.2-0.7,0.4-1.1,0.6
			c-0.4,0.2-0.8,0.3-1.3,0.4c-0.5,0.1-1,0.1-1.7,0.1c-1,0-1.9-0.2-2.7-0.5c-0.8-0.3-1.5-0.8-2.1-1.5c-0.6-0.6-1.1-1.5-1.4-2.4
			c-0.3-0.9-0.5-2-0.5-3.3c0-1.2,0.2-2.3,0.5-3.2c0.3-0.9,0.8-1.7,1.5-2.4c0.6-0.7,1.4-1.2,2.2-1.5c0.9-0.4,1.8-0.5,2.9-0.5
			c0.6,0,1.1,0,1.5,0.1c0.4,0.1,0.8,0.2,1.2,0.3c0.3,0.1,0.6,0.3,0.8,0.4c0.2,0.2,0.5,0.3,0.6,0.4c0.2,0.1,0.3,0.2,0.4,0.3
			c0.6,0.4,1.1,0.2,1.3-0.1l0.6-0.9l-0.3-0.3c-0.4-0.4-0.9-0.7-1.3-1c-0.4-0.3-0.9-0.5-1.4-0.7c-0.5-0.2-1.1-0.3-1.6-0.4
			c-0.6-0.1-1.2-0.2-1.9-0.2c-1.4,0-2.7,0.2-3.8,0.7c-1.1,0.5-2.2,1.2-3,2c-0.8,0.9-1.5,1.9-1.9,3.1c-0.5,1.2-0.7,2.5-0.7,4
			c0,1.5,0.2,2.8,0.7,4c0.4,1.2,1.1,2.2,1.9,3.1c0.8,0.9,1.8,1.5,2.9,2c1.1,0.5,2.3,0.7,3.7,0.7c0.8,0,1.5-0.1,2.2-0.2
			c0.7-0.1,1.3-0.3,1.8-0.6c0.6-0.2,1.1-0.5,1.6-0.9c0.5-0.3,0.9-0.7,1.3-1.1l0.3-0.3L502,136C501.8,135.7,501.4,135.7,501.1,135.8z
			"/>
		<polygon fill="#FFFFFF" points="516,139.8 527.9,139.8 527.9,137.7 518.4,137.7 518.4,131.1 526.3,131.1 526.3,129.1 518.4,129.1 
			518.4,122.7 527.9,122.7 527.9,120.6 516,120.6 		"/>
		<path fill="#FFFFFF" d="M548.3,120.6h-5.2v19.2h2.3v-7.3h2.9c1.1,0,2-0.1,2.9-0.4c0.9-0.3,1.6-0.7,2.2-1.2
			c0.6-0.5,1.1-1.2,1.4-1.9c0.3-0.7,0.5-1.5,0.5-2.4c0-1.9-0.6-3.3-1.8-4.4C552.3,121.1,550.6,120.6,548.3,120.6z M553,126.5
			c0,0.6-0.1,1.1-0.3,1.6l0,0c-0.2,0.5-0.5,0.9-0.9,1.2c-0.4,0.3-0.9,0.6-1.4,0.8c-0.6,0.2-1.2,0.3-2,0.3h-2.9v-7.8h2.9
			c1.6,0,2.8,0.3,3.5,1C552.6,124.3,553,125.3,553,126.5z"/>
		<polygon fill="#FFFFFF" points="568.9,122.7 575.3,122.7 575.3,139.8 577.6,139.8 577.6,122.7 584,122.7 584,120.6 568.9,120.6 		
			"/>
	</g>
	<g>
		<path fill="#FFFFFF" d="M75.8,0C34,0,0,34,0,75.8s34,75.8,75.8,75.8c41.8,0,75.8-34,75.8-75.8S117.6,0,75.8,0z M20.6,122.2
			l0.2-0.3L47,85.4h38.4v-3.9H49.8l35.7-49.7v-6.6l-67.2,93.6c-9-12-14.4-27-14.4-43.1c0-39.7,32.3-72,72-72c4.6,0,9.1,0.5,13.5,1.3
			v14.8v6.6v47.3v3.9h3.9h45v-3.9h-45V6c31.3,7.8,54.6,36.1,54.6,69.8c0,1.9-0.1,3.9-0.3,5.8H93.2h-1.3h-0.6h-1.9v3.9v61
			c-4.4,0.8-8.9,1.3-13.5,1.3C53.5,147.8,33.8,138.2,20.6,122.2z M93.2,145.6V85.4h53.9C143.1,114.8,121.4,138.6,93.2,145.6z"/>
	</g>
</g>
</svg>
