<?xml version="1.0" encoding="utf-8"?>
<!-- Generator: Adobe Illustrator 18.1.1, SVG Export Plug-In . SVG Version: 6.00 Build 0)  -->
<!DOCTYPE svg PUBLIC "-//W3C//DTD SVG 1.1//EN" "http://www.w3.org/Graphics/SVG/1.1/DTD/svg11.dtd">
<svg version="1.1" id="Слой_1" xmlns="http://www.w3.org/2000/svg" xmlns:xlink="http://www.w3.org/1999/xlink" x="0px" y="0px"
	 viewBox="231.1 60.1 317.9 317.9" enable-background="new 231.1 60.1 317.9 317.9" xml:space="preserve">
<g>
	<g>
		<path d="M477.8,159c-0.7-0.9-1.9-1.5-3-1.5H336.5l-2.6-16.2c-0.4-1.9-1.9-3.2-3.7-3.2h-25c-2.1,0-3.7,1.7-3.7,3.7s1.7,3.7,3.7,3.7
			H327l13,79.2l0,0c0,0.4,0,0.7,0.2,1.1l4.5,26.8c0.4,1.9,1.9,3.2,3.7,3.2h105.9c2.1,0,3.7-1.7,3.7-3.7s-1.7-3.7-3.7-3.7H351.6
			l-3.4-19.9H458c1.7,0,3.2-1.1,3.5-2.8l16.8-63.8C478.7,161,478.5,159.9,477.8,159z M455.1,221.2H346.9l-9.3-56.3H470L455.1,221.2z
			"/>
		<path d="M381.6,282.6c0-9.5-7.8-17.3-17.3-17.3s-17.1,7.8-17.1,17.3s7.8,17.3,17.3,17.3S381.6,292.1,381.6,282.6z M354.6,282.6
			c0-5.4,4.5-9.9,9.9-9.9s9.9,4.5,9.9,9.9s-4.5,9.9-9.9,9.9S354.6,288,354.6,282.6z"/>
		<path d="M445.6,282.6c0-9.5-7.8-17.3-17.3-17.3s-17.3,7.8-17.3,17.3s7.8,17.3,17.3,17.3C437.7,299.7,445.6,292.1,445.6,282.6z
			 M418.5,282.6c0-5.4,4.5-9.9,9.9-9.9c5.4,0,9.9,4.5,9.9,9.9s-4.5,9.9-9.9,9.9C422.8,292.3,418.5,288,418.5,282.6z"/>
	</g>
</g>
<circle fill="none" stroke="#000000" stroke-width="10" stroke-miterlimit="10" cx="390" cy="219" r="153.9"/>
</svg>
