<?xml version="1.0" encoding="utf-8"?>
<!-- Generator: Adobe Illustrator 18.1.1, SVG Export Plug-In . SVG Version: 6.00 Build 0)  -->
<!DOCTYPE svg PUBLIC "-//W3C//DTD SVG 1.1//EN" "http://www.w3.org/Graphics/SVG/1.1/DTD/svg11.dtd">
<svg version="1.1" id="Слой_1" xmlns="http://www.w3.org/2000/svg" xmlns:xlink="http://www.w3.org/1999/xlink" x="0px" y="0px"
	 viewBox="0 0 51 57" enable-background="new 0 0 51 57" xml:space="preserve">
<path d="M2,20h47v35H2V20z M42,11V6h7v12H2V6h7v5h2V6h29v5H42z M40,0v4H11V0H9v4H0v53h51V4h-9V0H40z"/>
<rect x="9" y="27" width="3" height="3"/>
<rect x="19" y="27" width="3" height="3"/>
<rect x="29" y="27" width="3" height="3"/>
<rect x="39" y="27" width="3" height="3"/>
<rect x="9" y="36" width="3" height="3"/>
<rect x="19" y="36" width="3" height="3"/>
<rect x="29" y="36" width="3" height="3"/>
<rect x="39" y="36" width="3" height="3"/>
<rect x="9" y="45" width="3" height="3"/>
<rect x="19" y="45" width="3" height="3"/>
<rect x="29" y="45" width="3" height="3"/>
<rect x="39" y="45" width="3" height="3"/>
</svg>
