<?xml version="1.0" encoding="utf-8"?>
<!-- Generator: Adobe Illustrator 18.1.1, SVG Export Plug-In . SVG Version: 6.00 Build 0)  -->
<!DOCTYPE svg PUBLIC "-//W3C//DTD SVG 1.1//EN" "http://www.w3.org/Graphics/SVG/1.1/DTD/svg11.dtd">
<svg version="1.1" id="Слой_1" xmlns="http://www.w3.org/2000/svg" xmlns:xlink="http://www.w3.org/1999/xlink" x="0px" y="0px"
	 viewBox="0 0 292.4 626" enable-background="new 0 0 292.4 626" xml:space="preserve">
<g>
	<path d="M292.3,0c-0.1,2-0.3,4-0.3,6c0,32.2-0.1,64.3,0.1,96.5c0,4.5-1.3,5.6-5.7,5.6c-17.5-0.2-35-0.2-52.5,0.2
		c-6,0.1-11.9,1-17.8,2.1c-11,2.1-19.1,11-19.5,23.4c-0.9,22.6-0.8,45.3-1.2,67.9c-0.1,4.1,2.7,3.4,5.1,3.4c28.5,0,57,0,85.5,0
		c1.9,0,3.9,0,6.5,0c-3.8,36.4-7.6,71.9-11.4,107.8c-28.6,0-56.7,0-85.5,0c0,2.5,0,4.6,0,6.7c0,100.3-0.1,200.6-0.1,300.9
		c0,1.8-0.1,3.7-0.2,5.5c-39,0-78,0-117,0c0-9.3,0.1-18.7,0.1-28c0-92.3,0-184.7,0-277c0-2.5,0-4.9,0-8c-26.2,0-51.9,0-78,0
		c-0.1-2.2-0.3-3.8-0.3-5.4c0-32.3,0.1-64.7-0.1-97c0-4.5,1.3-5.6,5.7-5.6c22.3,0.2,44.7-0.1,67,0.2c4.8,0.1,5.8-1.5,5.8-6
		c0.1-29,0-58,1-87c0.8-21.1,5.2-41.6,14.9-60.6c10.7-20.9,27.4-35.2,49.6-42.2c12.3-3.9,25.3-5.6,38-8.3c1.8-0.4,3.5-0.8,5.3-1.2
		C222.3,0,257.3,0,292.3,0z"/>
</g>
</svg>
