<?xml version="1.0" encoding="utf-8"?>
<!-- Generator: Adobe Illustrator 18.1.1, SVG Export Plug-In . SVG Version: 6.00 Build 0)  -->
<!DOCTYPE svg PUBLIC "-//W3C//DTD SVG 1.1//EN" "http://www.w3.org/Graphics/SVG/1.1/DTD/svg11.dtd">
<svg version="1.1" id="Слой_1" xmlns="http://www.w3.org/2000/svg" xmlns:xlink="http://www.w3.org/1999/xlink" x="0px" y="0px"
	 viewBox="0 0 246.3 240.9" enable-background="new 0 0 246.3 240.9" xml:space="preserve">
<g>
	<path d="M123.3,0.3c20.8,0,41.7-0.6,62.5,0.1c33.5,1.3,60.5,30.3,60.5,63.9c0,37.5,0,75,0,112.5c0,35-29,64.1-64,64.1
		c-39.3,0.1-78.7,0-118,0c-35.1,0-64.1-28.7-64.2-63.8c-0.2-37.7-0.2-75.3,0-113C0.3,30.3,27.2,1.7,60.9,0.4
		C81.7-0.4,102.5,0.3,123.3,0.3z M123.5,21.8c-18.3,0-36.7,0-55,0C42.4,21.9,22.6,40.9,22.3,67c-0.3,35.8-0.4,71.6,0,107.5
		c0.3,25.5,19.9,44.7,45.4,44.8c37,0.2,74,0.2,111,0c26.1-0.2,45.4-19.9,45.4-45.9c0-35.2,0-70.3,0-105.5c0-26.5-19.6-46-46.2-46.1
		C159.8,21.8,141.6,21.8,123.5,21.8z"/>
	<path d="M122.9,182.4c-34.1,0-61.6-27.6-61.7-61.7c-0.1-34.4,28.1-62.5,62.4-62.2c34.4,0.3,61.7,27.9,61.7,62.3
		C185.1,155.1,157.5,182.5,122.9,182.4z M123.2,160.2c22,0,39.8-17.7,39.8-39.6c0-21.9-17.9-39.8-39.7-39.8
		c-21.8,0.1-39.8,18-39.8,39.8C83.3,142.4,101.2,160.2,123.2,160.2z"/>
	<path d="M174.4,55.1c0.1-8,6.4-14,14.5-13.8c7.8,0.2,13.6,6.4,13.5,14.3c-0.1,8-6.5,14-14.5,13.8C180.2,69.2,174.3,62.9,174.4,55.1
		z"/>
</g>
</svg>
