<?xml version="1.0" encoding="UTF-8"?>
<svg width="378px" height="86px" viewBox="0 0 378 86" version="1.1" xmlns="http://www.w3.org/2000/svg" xmlns:xlink="http://www.w3.org/1999/xlink">
    <!-- Generator: Sketch 49.3 (51167) - http://www.bohemiancoding.com/sketch -->
    <title>logo</title>
    <desc>Created with Sketch.</desc>
    <defs></defs>
    <g id="Page-1" stroke="none" stroke-width="1" fill="none" fill-rule="evenodd">
        <g id="logo">
            <g id="Group">
                <g transform="translate(114.000000, 0.000000)" fill="#ffffff" fill-rule="#ffffff" id="Shape" stroke="#ffffff">
                    <g>
                        <path d="M44.4,50.9 L41.6,50.9 C41.3,50.9 41,50.8 40.8,50.6 C40.6,50.4 40.4,50.2 40.3,49.9 L34.4,35.4 L10,35.4 L4.2,49.9 C4.1,50.2 3.9,50.4 3.7,50.6 C3.5,50.8 3.2,50.9 2.9,50.9 L0,50.9 L20.4,1 L24,1 L44.4,50.9 Z M11,32.8 L33.3,32.8 L23.1,7.6 C22.9,7.2 22.8,6.7 22.6,6.2 C22.4,5.7 22.3,5.2 22.1,4.6 C21.9,5.2 21.8,5.7 21.6,6.2 C21.4,6.7 21.3,7.2 21.1,7.6 L11,32.8 Z"></path>
                        <polygon points="55.9 47.9 79.5 47.9 79.5 51 52.3 51 52.3 1.1 55.9 1.1 55.9 47.9"></polygon>
                        <polygon points="115.1 1.1 115.1 4.2 97.6 4.2 97.6 51 94 51 94 4.2 76.4 4.2 76.4 1.1"></polygon>
                        <path d="M157.2,50.9 L154.4,50.9 C154.1,50.9 153.8,50.8 153.6,50.6 C153.4,50.4 153.2,50.2 153.1,49.9 L147.2,35.4 L122.7,35.4 L116.9,49.9 C116.8,50.2 116.6,50.4 116.4,50.6 C116.2,50.8 115.9,50.9 115.6,50.9 L112.9,50.9 L133.3,1 L136.9,1 L157.2,50.9 Z M123.8,32.8 L146.1,32.8 L136,7.6 C135.8,7.2 135.7,6.7 135.5,6.2 C135.3,5.7 135.2,5.2 135,4.6 C134.8,5.2 134.7,5.7 134.5,6.2 C134.3,6.7 134.2,7.2 134,7.6 L123.8,32.8 Z"></path>
                        <path d="M167.7,1.2 C167.9,1.3 168.1,1.5 168.3,1.7 L200.6,44.9 C200.5,44.2 200.5,43.5 200.5,42.9 L200.5,1.1 L203.7,1.1 L203.7,51 L202,51 C201.5,51 201,50.8 200.7,50.3 L168.1,7 C168.2,7.7 168.2,8.4 168.2,9 L168.2,51 L165.1,51 L165.1,1.1 L166.9,1.1 C167.2,1.1 167.5,1.1 167.7,1.2 Z"></path>
                        <path d="M262.9,26 C262.9,29.9 262.3,33.3 261.2,36.5 C260,39.6 258.4,42.3 256.3,44.5 C254.2,46.7 251.7,48.4 248.8,49.6 C245.9,50.8 242.7,51.4 239.1,51.4 C235.6,51.4 232.4,50.8 229.5,49.6 C226.6,48.4 224.1,46.7 222,44.5 C219.9,42.3 218.3,39.6 217.1,36.5 C215.9,33.4 215.4,29.9 215.4,26 C215.4,22.2 216,18.7 217.1,15.6 C218.3,12.5 219.9,9.8 222,7.6 C224.1,5.4 226.6,3.7 229.5,2.4 C232.4,1.2 235.6,0.6 239.1,0.6 C242.6,0.6 245.9,1.2 248.8,2.4 C251.7,3.6 254.2,5.3 256.3,7.6 C258.4,9.8 260,12.5 261.2,15.7 C262.3,18.7 262.9,22.2 262.9,26 Z M259.1,26 C259.1,22.5 258.6,19.4 257.7,16.6 C256.7,13.8 255.4,11.5 253.6,9.6 C251.8,7.7 249.7,6.2 247.3,5.2 C244.8,4.2 242.1,3.7 239.1,3.7 C236.1,3.7 233.4,4.2 231,5.2 C228.5,6.2 226.4,7.7 224.7,9.6 C222.9,11.5 221.6,13.9 220.6,16.6 C219.6,19.4 219.1,22.5 219.1,26 C219.1,29.5 219.6,32.6 220.6,35.4 C221.6,38.2 222.9,40.5 224.7,42.4 C226.5,44.3 228.6,45.8 231,46.8 C233.5,47.8 236.2,48.3 239.1,48.3 C242.1,48.3 244.8,47.8 247.3,46.8 C249.8,45.8 251.9,44.3 253.6,42.4 C255.3,40.5 256.7,38.1 257.7,35.4 C258.7,32.6 259.1,29.5 259.1,26 Z"></path>
                    </g>
                    <g transform="translate(0.000000, 73.000000)">
                        <path d="M11.5,6.1 C11.5,7 11.4,7.9 11.1,8.6 C10.8,9.4 10.4,10 9.9,10.5 C9.4,11 8.8,11.5 8.1,11.7 C7.4,12 6.6,12.1 5.8,12.1 C5,12.1 4.2,12 3.5,11.7 C2.8,11.4 2.2,11 1.7,10.5 C1.2,10 0.8,9.3 0.5,8.6 C0.2,7.8 0.1,7 0.1,6.1 C0.1,5.2 0.2,4.3 0.5,3.6 C0.8,2.8 1.2,2.2 1.7,1.7 C2.2,1.2 2.8,0.7 3.5,0.4 C4.2,0.1 5,0 5.8,0 C6.7,0 7.4,0.1 8.1,0.4 C8.8,0.7 9.4,1.1 9.9,1.7 C10.4,2.2 10.8,2.9 11.1,3.7 C11.4,4.5 11.5,5.1 11.5,6.1 Z M10.6,6.1 C10.6,5.3 10.5,4.5 10.2,3.8 C10,3.1 9.6,2.6 9.2,2.1 C8.8,1.6 8.3,1.3 7.7,1 C7.1,0.8 6.4,0.6 5.7,0.6 C5,0.6 4.3,0.7 3.7,1 C3.1,1.2 2.6,1.6 2.2,2.1 C1.8,2.6 1.4,3.1 1.2,3.8 C1,4.5 0.8,5.2 0.8,6.1 C0.8,6.9 0.9,7.7 1.2,8.4 C1.4,9.1 1.8,9.6 2.2,10.1 C2.6,10.6 3.1,10.9 3.7,11.2 C4.3,11.4 5,11.6 5.7,11.6 C6.4,11.6 7.1,11.5 7.7,11.2 C8.3,11 8.8,10.6 9.2,10.1 C9.6,9.6 10,9.1 10.2,8.4 C10.5,7.7 10.6,6.9 10.6,6.1 Z"></path>
                        <path d="M24.8641026,11.5 C25.4641026,11.5 25.9641026,11.4 26.4641026,11.2 C26.9641026,11 27.2641026,10.7 27.6641026,10.4 C27.9641026,10 28.2641026,9.6 28.3641026,9.1 C28.5641026,8.6 28.6641026,8.1 28.6641026,7.5 L28.6641026,0 L29.5641026,0 L29.5641026,7.5 C29.5641026,8.2 29.4641026,8.8 29.2641026,9.4 C29.0641026,10 28.7641026,10.5 28.3641026,10.9 C27.9641026,11.3 27.4641026,11.7 26.9641026,11.9 C26.3641026,12.1 25.7641026,12.3 25.0641026,12.3 C24.3641026,12.3 23.7641026,12.2 23.1641026,11.9 C22.5641026,11.7 22.1641026,11.3 21.7641026,10.9 C21.3641026,10.5 21.0641026,10 20.8641026,9.4 C20.6641026,8.8 20.5641026,8.2 20.5641026,7.5 L20.5641026,0 L21.4641026,0 L21.4641026,7.5 C21.4641026,8.1 21.5641026,8.6 21.7641026,9.1 C21.9641026,9.6 22.1641026,10 22.4641026,10.4 C22.7641026,10.8 23.1641026,11 23.6641026,11.2 C23.7641026,11.4 24.2641026,11.5 24.8641026,11.5 Z"></path>
                        <polygon points="48.0282051 0 48.0282051 0.7 43.8282051 0.7 43.8282051 12 42.9282051 12 42.9282051 0.7 38.6282051 0.7 38.6282051 0"></polygon>
                        <path d="M67.1923077,6.1 C67.1923077,7 67.0923077,7.9 66.7923077,8.6 C66.4923077,9.3 66.0923077,10 65.5923077,10.5 C65.0923077,11 64.4923077,11.4 63.7923077,11.7 C63.0923077,12 62.2923077,12.1 61.4923077,12.1 L57.0923077,12.1 L57.0923077,0 L61.4923077,0 C62.3923077,0 63.0923077,0.1 63.7923077,0.4 C64.4923077,0.7 65.0923077,1.1 65.5923077,1.6 C66.0923077,2.1 66.4923077,2.8 66.7923077,3.5 C67.0923077,4.3 67.1923077,5.1 67.1923077,6.1 Z M66.2923077,6.1 C66.2923077,5.3 66.1923077,4.5 65.8923077,3.8 C65.6923077,3.1 65.2923077,2.6 64.8923077,2.1 C64.4923077,1.6 63.9923077,1.3 63.3923077,1.1 C62.7923077,0.9 62.0923077,0.7 61.3923077,0.7 L57.8923077,0.7 L57.8923077,11.4 L61.3923077,11.4 C62.0923077,11.4 62.7923077,11.3 63.3923077,11 C63.9923077,10.8 64.4923077,10.4 64.8923077,10 C65.2923077,9.5 65.6923077,9 65.8923077,8.3 C66.1923077,7.7 66.2923077,6.9 66.2923077,6.1 Z"></path>
                        <path d="M87.6564103,6.1 C87.6564103,7 87.5564103,7.9 87.2564103,8.6 C86.9564103,9.4 86.5564103,10 86.0564103,10.5 C85.5564103,11 84.9564103,11.5 84.2564103,11.7 C83.5564103,12 82.7564103,12.1 81.9564103,12.1 C81.1564103,12.1 80.3564103,12 79.6564103,11.7 C78.9564103,11.4 78.3564103,11 77.8564103,10.5 C77.3564103,10 76.9564103,9.3 76.6564103,8.6 C76.3564103,7.8 76.2564103,7 76.2564103,6.1 C76.2564103,5.2 76.3564103,4.3 76.6564103,3.6 C76.9564103,2.8 77.3564103,2.2 77.8564103,1.7 C78.3564103,1.2 78.9564103,0.7 79.6564103,0.4 C80.3564103,0.1 81.1564103,0 81.9564103,0 C82.8564103,0 83.5564103,0.1 84.2564103,0.4 C84.9564103,0.7 85.5564103,1.1 86.0564103,1.7 C86.5564103,2.2 86.9564103,2.9 87.2564103,3.7 C87.4564103,4.3 87.6564103,5.1 87.6564103,6.1 Z M86.7564103,6.1 C86.7564103,5.3 86.6564103,4.5 86.3564103,3.8 C86.1564103,3.1 85.7564103,2.6 85.3564103,2.1 C84.9564103,1.6 84.4564103,1.3 83.8564103,1 C83.2564103,0.8 82.5564103,0.6 81.8564103,0.6 C81.1564103,0.6 80.4564103,0.7 79.8564103,1 C79.2564103,1.2 78.7564103,1.6 78.3564103,2.1 C77.9564103,2.6 77.5564103,3.1 77.3564103,3.8 C77.1564103,4.5 76.9564103,5.2 76.9564103,6.1 C76.9564103,6.9 77.0564103,7.7 77.3564103,8.4 C77.5564103,9.1 77.9564103,9.6 78.3564103,10.1 C78.7564103,10.6 79.2564103,10.9 79.8564103,11.2 C80.4564103,11.4 81.1564103,11.6 81.8564103,11.6 C82.5564103,11.6 83.2564103,11.5 83.8564103,11.2 C84.4564103,10.9 84.9564103,10.6 85.3564103,10.1 C85.7564103,9.6 86.1564103,9.1 86.3564103,8.4 C86.5564103,7.7 86.7564103,6.9 86.7564103,6.1 Z"></path>
                        <path d="M108.120513,6.1 C108.120513,7 108.020513,7.9 107.720513,8.6 C107.420513,9.4 107.020513,10 106.520513,10.5 C106.020513,11 105.420513,11.5 104.720513,11.7 C104.020513,12 103.220513,12.1 102.420513,12.1 C101.620513,12.1 100.820513,12 100.120513,11.7 C99.4205128,11.4 98.8205128,11 98.3205128,10.5 C97.8205128,10 97.4205128,9.3 97.1205128,8.6 C96.8205128,7.8 96.7205128,7 96.7205128,6.1 C96.7205128,5.2 96.8205128,4.3 97.1205128,3.6 C97.4205128,2.8 97.8205128,2.2 98.3205128,1.7 C98.8205128,1.2 99.4205128,0.7 100.120513,0.4 C100.820513,0.1 101.620513,0 102.420513,0 C103.320513,0 104.020513,0.1 104.720513,0.4 C105.420513,0.7 106.020513,1.1 106.520513,1.7 C107.020513,2.2 107.420513,2.9 107.720513,3.7 C108.020513,4.5 108.120513,5.1 108.120513,6.1 Z M107.220513,6.1 C107.220513,5.3 107.120513,4.5 106.820513,3.8 C106.620513,3.1 106.220513,2.6 105.820513,2.1 C105.420513,1.6 104.920513,1.3 104.320513,1 C103.720513,0.8 103.020513,0.6 102.320513,0.6 C101.620513,0.6 100.920513,0.7 100.320513,1 C99.7205128,1.2 99.2205128,1.6 98.8205128,2.1 C98.4205128,2.6 98.0205128,3.1 97.8205128,3.8 C97.6205128,4.5 97.4205128,5.2 97.4205128,6.1 C97.4205128,6.9 97.5205128,7.7 97.8205128,8.4 C98.0205128,9.1 98.4205128,9.6 98.8205128,10.1 C99.2205128,10.6 99.7205128,10.9 100.320513,11.2 C100.920513,11.4 101.620513,11.6 102.320513,11.6 C103.020513,11.6 103.720513,11.5 104.320513,11.2 C104.920513,11 105.420513,10.6 105.820513,10.1 C106.220513,9.6 106.620513,9.1 106.820513,8.4 C107.020513,7.7 107.220513,6.9 107.220513,6.1 Z"></path>
                        <path d="M118.084615,6.6 L118.084615,12.1 L117.184615,12.1 L117.184615,0 L120.284615,0 C121.684615,0 122.684615,0.3 123.384615,0.8 C124.084615,1.3 124.384615,2.1 124.384615,3.2 C124.384615,3.7 124.284615,4.1 124.184615,4.5 C123.984615,4.9 123.784615,5.2 123.484615,5.5 C123.184615,5.8 122.784615,6 122.384615,6.2 C121.984615,6.4 121.484615,6.5 120.984615,6.6 C121.084615,6.7 121.284615,6.8 121.384615,6.9 L125.584615,12.1 L124.784615,12.1 C124.684615,12.1 124.584615,12.1 124.584615,12 C124.584615,11.9 124.484615,11.9 124.384615,11.8 L120.484615,6.9 C120.384615,6.8 120.284615,6.7 120.184615,6.6 C120.084615,6.5 119.884615,6.5 119.684615,6.5 L118.084615,6.5 L118.084615,6.6 Z M118.084615,6 L120.184615,6 C120.684615,6 121.184615,5.9 121.584615,5.8 C121.984615,5.7 122.384615,5.5 122.684615,5.2 C122.984615,5 123.184615,4.7 123.384615,4.3 C123.584615,4 123.584615,3.6 123.584615,3.2 C123.584615,2.3 123.284615,1.7 122.784615,1.3 C122.184615,0.9 121.384615,0.7 120.284615,0.7 L118.084615,0.7 L118.084615,6 Z"></path>
                        <path d="M154.015385,10.1 C154.115385,10.1 154.115385,10.1 154.115385,10.2 L154.415385,10.6 C154.115385,10.9 153.915385,11.1 153.615385,11.3 C153.315385,11.5 153.015385,11.7 152.615385,11.8 C152.215385,12 151.915385,12.1 151.415385,12.2 C151.015385,12.3 150.515385,12.3 150.015385,12.3 C149.215385,12.3 148.415385,12.2 147.715385,11.9 C147.015385,11.6 146.415385,11.2 145.915385,10.7 C145.415385,10.2 145.015385,9.5 144.715385,8.7 C144.415385,7.9 144.315385,7.1 144.315385,6.2 C144.315385,5.3 144.415385,4.4 144.715385,3.7 C145.015385,2.9 145.415385,2.3 145.915385,1.7 C146.415385,1.2 147.015385,0.7 147.815385,0.4 C148.515385,0.1 149.315385,2.84217094e-14 150.215385,2.84217094e-14 C150.615385,2.84217094e-14 151.015385,2.84217094e-14 151.415385,0.1 C151.815385,0.2 152.115385,0.3 152.415385,0.4 C152.715385,0.5 153.015385,0.7 153.315385,0.9 C153.615385,1.1 153.915385,1.3 154.115385,1.5 L153.815385,1.9 C153.815385,2 153.715385,2 153.615385,2 C153.515385,2 153.515385,2 153.415385,1.9 C153.315385,1.8 153.215385,1.8 153.115385,1.7 C153.015385,1.6 152.815385,1.5 152.715385,1.4 C152.515385,1.3 152.315385,1.2 152.115385,1.1 C151.915385,1 151.615385,0.9 151.315385,0.9 C151.015385,0.8 150.615385,0.8 150.215385,0.8 C149.515385,0.8 148.815385,0.9 148.215385,1.2 C147.615385,1.5 147.115385,1.8 146.615385,2.3 C146.215385,2.8 145.815385,3.3 145.615385,4 C145.415385,4.7 145.215385,5.4 145.215385,6.3 C145.215385,7.2 145.315385,7.9 145.615385,8.6 C145.815385,9.3 146.215385,9.8 146.615385,10.3 C147.015385,10.8 147.515385,11.1 148.115385,11.4 C148.715385,11.6 149.315385,11.8 150.015385,11.8 C150.415385,11.8 150.815385,11.8 151.215385,11.7 C151.515385,11.6 151.915385,11.6 152.115385,11.4 C152.415385,11.3 152.615385,11.1 152.915385,11 C153.115385,10.8 153.415385,10.6 153.615385,10.4 C153.815385,10.1 153.915385,10.1 154.015385,10.1 C153.915385,10.1 153.915385,10.1 154.015385,10.1 Z"></path>
                        <path d="M174.712821,6.1 C174.712821,7 174.612821,7.9 174.312821,8.6 C174.012821,9.4 173.612821,10 173.112821,10.5 C172.612821,11 172.012821,11.5 171.312821,11.7 C170.612821,12 169.812821,12.1 169.012821,12.1 C168.212821,12.1 167.412821,12 166.712821,11.7 C166.012821,11.4 165.412821,11 164.912821,10.5 C164.412821,10 164.012821,9.3 163.712821,8.6 C163.412821,7.8 163.312821,7 163.312821,6.1 C163.312821,5.2 163.412821,4.3 163.712821,3.6 C164.012821,2.8 164.412821,2.2 164.912821,1.7 C165.412821,1.2 166.012821,0.7 166.712821,0.4 C167.412821,0.1 168.212821,0 169.012821,0 C169.912821,0 170.612821,0.1 171.312821,0.4 C172.012821,0.7 172.612821,1.1 173.112821,1.7 C173.612821,2.2 174.012821,2.9 174.312821,3.7 C174.512821,4.3 174.712821,5.1 174.712821,6.1 Z M173.812821,6.1 C173.812821,5.3 173.712821,4.5 173.412821,3.8 C173.212821,3.1 172.812821,2.6 172.412821,2.1 C172.012821,1.6 171.512821,1.3 170.912821,1 C170.312821,0.8 169.612821,0.6 168.912821,0.6 C168.212821,0.6 167.512821,0.7 166.912821,1 C166.312821,1.2 165.812821,1.6 165.412821,2.1 C165.012821,2.6 164.612821,3.1 164.412821,3.8 C164.212821,4.5 164.012821,5.2 164.012821,6.1 C164.012821,6.9 164.112821,7.7 164.412821,8.4 C164.612821,9.1 165.012821,9.6 165.412821,10.1 C165.812821,10.6 166.312821,10.9 166.912821,11.2 C167.512821,11.4 168.212821,11.6 168.912821,11.6 C169.612821,11.6 170.312821,11.5 170.912821,11.2 C171.512821,11 172.012821,10.6 172.412821,10.1 C172.812821,9.6 173.212821,9.1 173.412821,8.4 C173.612821,7.7 173.812821,6.9 173.812821,6.1 Z"></path>
                        <path d="M184.310256,0.1 C184.310256,0.1 184.410256,0.2 184.410256,0.2 L192.210256,10.7 C192.210256,10.5 192.210256,10.4 192.210256,10.2 L192.210256,0 L193.010256,0 L193.010256,12.1 L192.610256,12.1 C192.510256,12.1 192.410256,12 192.310256,11.9 L184.410256,1.4 C184.410256,1.6 184.410256,1.7 184.410256,1.9 L184.410256,12.1 L183.610256,12.1 L183.610256,0 L184.010256,0 C184.210256,0 184.310256,0 184.310256,0.1 Z"></path>
                        <path d="M211.607692,10.1 C211.707692,10.1 211.707692,10.1 211.707692,10.2 L212.007692,10.6 C211.707692,10.9 211.507692,11.1 211.207692,11.3 C210.907692,11.5 210.607692,11.7 210.207692,11.8 C209.807692,12 209.507692,12.1 209.007692,12.2 C208.607692,12.3 208.107692,12.3 207.607692,12.3 C206.807692,12.3 206.007692,12.2 205.307692,11.9 C204.607692,11.6 204.007692,11.2 203.507692,10.7 C203.007692,10.2 202.607692,9.5 202.307692,8.7 C202.007692,7.9 201.907692,7.1 201.907692,6.2 C201.907692,5.3 202.007692,4.4 202.307692,3.7 C202.607692,2.9 203.007692,2.3 203.507692,1.7 C204.007692,1.2 204.607692,0.7 205.407692,0.4 C206.107692,0.1 206.907692,2.84217094e-14 207.807692,2.84217094e-14 C208.207692,2.84217094e-14 208.607692,2.84217094e-14 209.007692,0.1 C209.407692,0.2 209.707692,0.3 210.007692,0.4 C210.307692,0.5 210.607692,0.7 210.907692,0.9 C211.207692,1.1 211.507692,1.3 211.707692,1.5 L211.407692,1.9 C211.407692,2 211.307692,2 211.207692,2 C211.107692,2 211.107692,2 211.007692,1.9 C210.907692,1.8 210.807692,1.8 210.707692,1.7 C210.607692,1.6 210.407692,1.5 210.307692,1.4 C210.107692,1.3 209.907692,1.2 209.707692,1.1 C209.507692,1 209.207692,0.9 208.907692,0.9 C208.607692,0.8 208.207692,0.8 207.807692,0.8 C207.107692,0.8 206.407692,0.9 205.807692,1.2 C205.207692,1.5 204.707692,1.8 204.207692,2.3 C203.807692,2.8 203.407692,3.3 203.207692,4 C203.007692,4.7 202.807692,5.4 202.807692,6.3 C202.807692,7.2 202.907692,7.9 203.207692,8.6 C203.407692,9.3 203.807692,9.8 204.207692,10.3 C204.607692,10.8 205.107692,11.1 205.707692,11.4 C206.307692,11.6 206.907692,11.8 207.607692,11.8 C208.007692,11.8 208.407692,11.8 208.807692,11.7 C209.107692,11.6 209.507692,11.6 209.707692,11.4 C210.007692,11.3 210.207692,11.1 210.507692,11 C210.707692,10.8 211.007692,10.6 211.207692,10.4 C211.407692,10.1 211.407692,10.1 211.607692,10.1 C211.507692,10.1 211.507692,10.1 211.607692,10.1 Z"></path>
                        <polygon points="228.105128 0 228.105128 0.7 221.705128 0.7 221.705128 5.6 227.005128 5.6 227.005128 6.3 221.705128 6.3 221.705128 11.3 228.105128 11.3 228.105128 12 220.905128 12 220.905128 0"></polygon>
                        <path d="M237.902564,7.2 L237.902564,12.1 L237.002564,12.1 L237.002564,0 L240.102564,0 C241.502564,0 242.602564,0.3 243.302564,0.9 C244.002564,1.5 244.402564,2.4 244.402564,3.6 C244.402564,4.1 244.302564,4.6 244.102564,5.1 C243.902564,5.5 243.602564,5.9 243.202564,6.2 C242.802564,6.5 242.402564,6.8 241.902564,7 C241.402564,7.2 240.802564,7.3 240.102564,7.3 L237.902564,7.3 L237.902564,7.2 Z M237.902564,6.5 L240.102564,6.5 C240.602564,6.5 241.102564,6.4 241.502564,6.3 C241.902564,6.2 242.302564,5.9 242.602564,5.7 C242.902564,5.4 243.102564,5.1 243.302564,4.8 C243.502564,4.4 243.502564,4.1 243.502564,3.6 C243.502564,2.7 243.202564,2 242.602564,1.5 C242.002564,1 241.202564,0.7 240.002564,0.7 L237.802564,0.7 L237.802564,6.5 L237.902564,6.5 Z"></path>
                        <polygon points="262.7 0 262.7 0.7 258.5 0.7 258.5 12 257.6 12 257.6 0.7 253.3 0.7 253.3 0"></polygon>
                    </g>
                </g>
                <g>
                    <path d="M27,48.1 L12.4,68.4 L12.1,68.2 C19.5,77.1 30.6,82.8 43.1,82.8 C45.7,82.8 48.2,82.5 50.6,82.1 L50.6,48.1 L27,48.1 Z" id="Shape"></path>
                    <path d="M77.8,41.7 L77.8,43.8 L52.7,43.8 L52.7,45.9 L83,45.9 C83.1,44.8 83.1,43.8 83.1,42.7 C83.1,23.9 70.1,8.1 52.7,3.8 L52.7,41.6 L77.8,41.6 L77.8,41.7 Z" id="Shape"></path>
                    <path d="M52.7,81.6 C68.5,77.7 80.6,64.4 82.8,48.1 L52.7,48.1 L52.7,81.6 Z" id="Shape"></path>
                    <path d="M50.6,3.4 C48.2,2.9 45.7,2.7 43.1,2.7 C21,2.7 3,20.7 3,42.8 C3,51.8 6,60.1 11,66.8 L50.6,11.7 L50.6,3.4 Z" id="Shape"></path>
                    <polygon id="Shape" points="50.6 43.8 49.1 43.8 49.1 41.7 50.6 41.7 50.6 15.3 28.6 46 50.6 46"></polygon>
                    <path d="M43.1,0.5 C19.8,0.5 0.9,19.4 0.9,42.7 C0.9,66 19.8,84.9 43.1,84.9 C66.4,84.9 85.3,66 85.3,42.7 C85.3,19.4 66.3,0.5 43.1,0.5 Z M52.7,81.6 L52.7,83.1 L50.6,83.1 L50.6,82 C48.2,82.5 45.7,82.7 43.1,82.7 C30.6,82.7 19.5,77 12.1,68.1 L10.7,67.1 L11,66.7 C6,60 3,51.7 3,42.7 C3,20.6 21,2.6 43.1,2.6 C45.7,2.6 48.2,2.9 50.6,3.3 L50.6,1.9 L52.7,1.9 L52.7,3.8 C70.1,8.1 83.1,23.9 83.1,42.7 C83.1,43.8 83,44.9 83,45.9 L84.9,45.9 L84.9,48 L82.7,48 C80.6,64.5 68.5,77.7 52.7,81.6 Z" id="Shape" fill="#fff" fill-rule="nonzero"></path>
                    <path d="M52,48.1 L51.6,48.1 L50.5,48.1 L50.5,82.1 C51.2,82 51.9,81.8 52.6,81.6 L52.6,48.1 L52,48.1 Z" id="Shape" fill="#fff" fill-rule="nonzero"></path>
                    <path d="M50.8,11.3 L52.5,12.6 L50.6,15.3 L50.6,41.7 L52.7,41.7 L52.7,3.9 C52,3.7 51.3,3.6 50.6,3.4 L50.6,11.6 L50.8,11.3 Z" id="Shape" fill="#fff" fill-rule="nonzero"></path>
                    <path d="M50.6,83.2 L52.7,83.2 L52.7,81.7 C52,81.9 51.3,82 50.6,82.2 L50.6,83.2 Z" id="Shape" fill="#fff" fill-rule="nonzero"></path>
                    <path d="M52.7,1.9 L50.6,1.9 L50.6,3.3 C51.3,3.4 52,3.6 52.7,3.8 L52.7,1.9 Z" id="Shape" fill="#fff" fill-rule="nonzero"></path>
                    <path d="M52.7,46 L52.7,48.1 L82.8,48.1 C82.9,47.4 83,46.7 83,46 L52.7,46 Z" id="Shape" fill="#fff" fill-rule="nonzero"></path>
                    <path d="M84.9,46 L83,46 C82.9,46.7 82.9,47.4 82.8,48.1 L85,48.1 L85,46 L84.9,46 Z" id="Shape" fill="#fff" fill-rule="nonzero"></path>
                    <rect id="Rectangle-path" fill="#fff" fill-rule="nonzero" x="52" y="46" width="1" height="2.1"></rect>
                    <rect id="Rectangle-path" fill="#fff" fill-rule="nonzero" x="50.6" y="46" width="1.1" height="2.1"></rect>
                    <rect id="Rectangle-path" fill="#fff" fill-rule="nonzero" x="51.6" y="46" width="1" height="2.1"></rect>
                    <rect id="Rectangle-path" fill="#fff" fill-rule="nonzero" x="52.7" y="41.7" width="25.1" height="2.1"></rect>
                    <rect id="Rectangle-path" fill="#fff" fill-rule="nonzero" x="50.6" y="41.7" width="2.1" height="2.1"></rect>
                    <g transform="translate(11.000000, 14.000000)" id="Shape">
                        <polygon points="37.4 32 37.4 4.3 17.6 32"></polygon>
                        <polygon points="15.2 32 15.2 34.1 16 34.1 17.6 32"></polygon>
                        <polygon fill="#fff" fill-rule="nonzero" points="17.6 32 16 34.1 37.4 34.1 37.4 32"></polygon>
                        <path d="M15.2,32 L17.5,32 L37.4,4.3 L37.4,0.6 L0,52.8 C0.4,53.3 0.7,53.8 1.1,54.2 L1.4,54.4 L16,34.1 L15.2,34.1 L15.2,32 Z" fill="#fff" fill-rule="nonzero"></path>
                    </g>
                    <path d="M10.7,67.2 L12.1,68.2 C11.7,67.7 11.3,67.3 11,66.8 L10.7,67.2 Z" id="Shape" fill="#fff" fill-rule="nonzero"></path>
                    <polygon id="Shape" fill="#ffffff" fill-rule="nonzero" points="50.8 11.3 50.6 11.6 50.6 15.3 52.5 12.6"></polygon>
                    <polygon id="Shape" fill="#ffffff" fill-rule="nonzero" points="26.2 46 26.2 48.1 27 48.1 28.6 46"></polygon>
                </g>
            </g>
        </g>
    </g>
</svg>