<?xml version="1.0" encoding="utf-8"?>
<!-- Generator: Adobe Illustrator 18.1.1, SVG Export Plug-In . SVG Version: 6.00 Build 0)  -->
<!DOCTYPE svg PUBLIC "-//W3C//DTD SVG 1.1//EN" "http://www.w3.org/Graphics/SVG/1.1/DTD/svg11.dtd">
<svg version="1.1" id="Слой_1" xmlns="http://www.w3.org/2000/svg" xmlns:xlink="http://www.w3.org/1999/xlink" x="0px" y="0px"
	 viewBox="244.3 74.3 291.2 290" enable-background="new 244.3 74.3 291.2 290" xml:space="preserve">
<g display="none">
	<g display="inline" opacity="0.2">
		<g>
			<path stroke="#EC2227" stroke-width="0.5" stroke-miterlimit="10" d="M545.5,308.6c0,12.2-10,22.1-22.1,22.1h-266
				c-12.2,0-22.1-10-22.1-22.1v-266c0-12.2,10-22.1,22.1-22.1h266c12.2,0,22.1,9.9,22.1,22.1V308.6z"/>
			<path stroke="#EC2227" stroke-width="0.5" stroke-miterlimit="10" d="M290.5,345.3c-11.2,0-20.4-9.4-20.4-20.8V26.6
				c0-11.4,9.2-20.8,20.4-20.8h199.1c11.2,0,20.4,9.4,20.4,20.8v297.8c0,11.5-9.2,20.8-20.4,20.8H290.5z"/>
			<path stroke="#EC2227" stroke-width="0.5" stroke-miterlimit="10" d="M241.3,295.2c-11.6,0-21.1-9.1-21.1-20.2V75.3
				c0-11.1,9.5-20.2,21.1-20.2h297.3c11.6,0,21.1,9.1,21.1,20.2V275c0,11.1-9.5,20.2-21.1,20.2H241.3z"/>
		</g>
		<circle stroke="#EC2227" stroke-width="0.5" stroke-miterlimit="10" cx="390" cy="175.2" r="70.7"/>
		<circle stroke="#EC2227" stroke-width="0.5" stroke-miterlimit="10" cx="390" cy="175.2" r="169.7"/>
		<line fill="none" stroke="#EC2227" stroke-width="0.5" stroke-miterlimit="10" x1="214.8" y1="0" x2="565.2" y2="350.4"/>
		<line fill="none" stroke="#EC2227" stroke-width="0.5" stroke-miterlimit="10" x1="565.2" y1="0" x2="214.8" y2="350.4"/>
	</g>
</g>
<g>
	<g>
		<path d="M361.3,308.3c-64.5,0-117-52.5-117-117c0-64.5,52.5-117,117-117c64.5,0,117,52.5,117,117
			C478.3,255.8,425.8,308.3,361.3,308.3z M361.3,86.3c-57.9,0-105,47.1-105,105c0,57.9,47.1,105,105,105s105-47.1,105-105
			C466.3,133.4,419.2,86.3,361.3,86.3z"/>
	</g>
	<g>
		<rect x="455.6" y="322.3" transform="matrix(0.7007 0.7134 -0.7134 0.7007 383.9131 -258.502)" width="89" height="12"/>
	</g>
</g>
</svg>
